<svg width="225" height="70" viewBox="0 0 225 70" fill="none" xmlns="http://www.w3.org/2000/svg">
<g clip-path="url(#clip0_372_2532)">
<path d="M70.5489 46.4741H76.9691V50.804C77.0124 52.1726 76.7627 53.5347 76.2362 54.802C75.8091 55.8101 75.0571 56.652 74.0961 57.1979C73.0046 57.7634 71.7815 58.0371 70.5489 57.9917C69.2773 58.039 68.0134 57.7762 66.8698 57.2267C65.9014 56.7324 65.1165 55.9494 64.6271 54.9896C64.0949 53.8405 63.8391 52.586 63.8795 51.3236V37.8721C63.8304 36.5031 64.0803 35.1398 64.6124 33.8741C65.0596 32.8492 65.8307 31.9938 66.8111 31.435C67.9002 30.8588 69.1223 30.5704 70.3584 30.5978C71.4399 30.5622 72.5103 30.822 73.4512 31.3484C74.3447 31.878 75.0588 32.6565 75.5033 33.5855C76.0616 34.7461 76.3947 35.9992 76.4854 37.2803H80.0619C79.9674 35.3899 79.4679 33.5405 78.5961 31.8535C77.8799 30.483 76.7614 29.3565 75.386 28.6205C73.8245 27.8623 72.0987 27.4908 70.3584 27.5381C68.4847 27.4782 66.6255 27.8801 64.9496 28.7071C63.49 29.4803 62.3268 30.7017 61.6369 32.1855C60.8501 33.9783 60.4748 35.92 60.5375 37.8721V51.2803C60.4767 53.1266 60.8583 54.961 61.6515 56.635C62.3723 58.0621 63.5526 59.2141 65.0082 59.9113C66.7255 60.7041 68.6093 61.0849 70.5049 61.0226C72.3786 61.0824 74.2378 60.6806 75.9137 59.8535C77.3743 59.0749 78.5373 57.8487 79.2264 56.3607C80.0171 54.5636 80.3974 52.6174 80.3404 50.6597V43.4432H70.5489V46.4741Z" fill="#FEFEFE"/>
<path d="M88.3874 27.8701H85.0601V60.6763H88.3874V27.8701Z" fill="#FEFEFE"/>
<path d="M111.767 47.1381C111.06 46.0778 110.098 45.2053 108.967 44.5979C107.63 43.904 106.225 43.3432 104.775 42.9236H104.57H104.335H104.189L104.071 42.6494C102.748 42.2785 101.446 41.8352 100.172 41.3216C99.2508 40.939 98.4253 40.3627 97.7538 39.6329C97.0688 38.8276 96.7227 37.7948 96.7863 36.7463V35.9381C96.7382 35.1801 96.8679 34.4213 97.1653 33.7205C97.4626 33.0198 97.9198 32.3958 98.5013 31.8968C99.934 30.8559 101.693 30.3449 103.47 30.4535C104.811 30.3948 106.134 30.7699 107.237 31.5216C108.31 32.4124 109.077 33.6067 109.436 34.9422L112.529 33.8597C112.137 32.5674 111.495 31.3618 110.638 30.3092C109.864 29.3745 108.852 28.6576 107.707 28.2309C106.326 27.7412 104.864 27.5111 103.397 27.5525C101.539 27.4998 99.691 27.8343 97.9736 28.5339C96.5807 29.1346 95.4089 30.1423 94.617 31.4205C93.8204 32.8463 93.4256 34.4559 93.4736 36.0824V36.9051C93.3958 38.3994 93.8124 39.8782 94.6609 41.1195C95.4169 42.1527 96.4252 42.9817 97.5925 43.5298C99.072 44.1965 100.595 44.7655 102.151 45.2329L102.767 45.3917H102.899H103.001C104.206 45.7671 105.386 46.2153 106.534 46.7339C107.411 47.1336 108.176 47.738 108.762 48.4948C109.368 49.3354 109.673 50.3512 109.627 51.3814V52.3339C109.677 53.1089 109.544 53.8848 109.239 54.6008C108.933 55.3169 108.464 55.9538 107.868 56.4618C106.389 57.5109 104.586 58.0212 102.767 57.9051C101.219 57.944 99.6922 57.5432 98.3694 56.7504C97.0795 55.8784 96.1815 54.5495 95.8629 53.0412L92.7261 54.1958C93.0494 55.6226 93.7296 56.9472 94.7049 58.0494C95.6046 59.0827 96.7612 59.8684 98.0616 60.3298C99.5755 60.8143 101.16 61.0484 102.752 61.0226C104.652 61.0789 106.543 60.7498 108.308 60.0556C109.734 59.4785 110.936 58.467 111.737 57.169C112.539 55.7143 112.929 54.0743 112.866 52.4205V51.3669C112.934 49.8811 112.551 48.409 111.767 47.1381Z" fill="#FEFEFE"/>
<path d="M97.0064 21.6495C97.8088 22.0675 98.7082 22.2715 99.6155 22.2413C100.591 22.2786 101.554 22.0163 102.371 21.4908C103.121 20.9788 103.646 20.2047 103.837 19.3258L102.151 18.8062C102.01 19.3336 101.689 19.7972 101.243 20.1196C100.773 20.4494 100.206 20.6169 99.6301 20.5959C99.2105 20.6204 98.7905 20.5557 98.3985 20.4063C98.0065 20.2569 97.6517 20.0262 97.3581 19.7299C96.7763 19.0616 96.4772 18.1988 96.5226 17.3196V16.4392H103.984V14.1299C104.013 13.1921 103.828 12.2598 103.441 11.4021C103.141 10.7002 102.629 10.1057 101.975 9.69901C101.231 9.28274 100.383 9.07791 99.5275 9.10726C98.645 9.08006 97.7721 9.29493 97.0064 9.72787C96.2398 10.127 95.631 10.7671 95.2767 11.5464C94.8759 12.456 94.6856 13.4421 94.7197 14.433V17.3196C94.6918 18.2511 94.8877 19.1758 95.2914 20.0186C95.6784 20.7235 96.2775 21.2932 97.0064 21.6495ZM96.5226 14.1732C96.4682 13.2559 96.7375 12.3483 97.2849 11.6042C97.5544 11.3034 97.8895 11.0666 98.2653 10.9116C98.641 10.7566 99.0475 10.6875 99.4542 10.7093C99.8396 10.6881 100.225 10.7539 100.58 10.9014C100.936 11.049 101.253 11.2745 101.506 11.5609C102.028 12.2565 102.292 13.1072 102.254 13.9712V14.7794H96.5226V14.1732Z" fill="#FEFEFE"/>
<path d="M92.3452 16.3669C91.9969 15.8945 91.5114 15.5372 90.9527 15.3422C90.2843 15.1272 89.5974 14.9726 88.9005 14.8803H88.6807C88.1029 14.8096 87.5301 14.7036 86.9657 14.5628C86.5761 14.4568 86.2188 14.2586 85.925 13.9854C85.7853 13.8397 85.6779 13.6669 85.6098 13.478C85.5416 13.2892 85.5142 13.0884 85.5292 12.8885C85.5066 12.5805 85.5571 12.2714 85.6766 11.9859C85.7962 11.7003 85.9816 11.4461 86.2181 11.2432C86.7999 10.8298 87.5106 10.6306 88.2263 10.6803C88.795 10.6675 89.3552 10.818 89.8386 11.1133C90.3292 11.4219 90.7365 11.8428 91.0259 12.3401L92.4917 11.705C92.2973 11.1621 91.9817 10.6689 91.5683 10.2617C91.153 9.87026 90.6513 9.5788 90.1025 9.41019C89.4977 9.21191 88.8636 9.11435 88.2263 9.12153C87.3934 9.09696 86.5645 9.24446 85.793 9.55452C85.1854 9.82251 84.6744 10.2653 84.3272 10.8246C83.9808 11.4631 83.809 12.1793 83.8289 12.903C83.786 13.6047 83.9821 14.3005 84.3859 14.8803C84.7303 15.3316 85.198 15.677 85.7344 15.8762C86.3904 16.1058 87.068 16.2702 87.7572 16.3669H87.8305H87.9917H88.109C88.6593 16.4357 89.2033 16.5467 89.736 16.6989C90.1154 16.8086 90.4623 17.0066 90.7474 17.2762C91.0228 17.5866 91.1647 17.9903 91.1432 18.4019C91.1787 18.7414 91.1276 19.0842 90.9945 19.3992C90.8614 19.7143 90.6505 19.9916 90.381 20.2061C89.7061 20.6467 88.902 20.8548 88.0943 20.7978C87.4337 20.7799 86.7923 20.5744 86.2474 20.2061C85.6863 19.8391 85.2237 19.3439 84.8989 18.7628L83.4331 19.4123C83.6232 20.0063 83.9491 20.5494 84.3859 20.9999C84.8283 21.4412 85.3709 21.7727 85.9689 21.9669C86.6542 22.1899 87.3728 22.2972 88.0943 22.2844C88.9843 22.3074 89.8703 22.1604 90.7035 21.8514C91.3627 21.5973 91.9259 21.1486 92.3158 20.5669C92.6975 19.93 92.8857 19.1987 92.8582 18.4597C92.9142 17.7264 92.7348 16.9943 92.3452 16.3669Z" fill="#FEFEFE"/>
<path d="M106.71 18.763C106.647 19.6634 106.906 20.5573 107.443 21.2887C107.738 21.5957 108.099 21.8331 108.5 21.9831C108.901 22.1331 109.332 22.1917 109.759 22.1547H111.108V20.5093H110.008C109.802 20.5244 109.594 20.4932 109.401 20.4183C109.208 20.3433 109.035 20.2264 108.894 20.0764C108.596 19.7036 108.445 19.237 108.469 18.763V10.897H111.108V9.30935H108.469V7.30316L106.71 6.59595V9.30935H105.376V10.897H106.71V18.763Z" fill="#FEFEFE"/>
<path d="M79.886 15.3421C79.2185 15.1239 78.5313 14.9693 77.8338 14.8803H77.6873C77.1047 14.8094 76.527 14.7033 75.9576 14.5628C75.5724 14.4568 75.2198 14.2585 74.9316 13.9854C74.7892 13.8409 74.6792 13.6686 74.6085 13.4797C74.5378 13.2908 74.5081 13.0894 74.5211 12.8885C74.5019 12.5808 74.5539 12.2728 74.6733 11.9878C74.7926 11.7027 74.9762 11.4481 75.2101 11.2432C75.7975 10.8299 76.5127 10.6309 77.2329 10.6803C77.801 10.6724 78.3599 10.8225 78.8453 11.1133C79.3351 11.4181 79.7385 11.8402 80.0179 12.3401L81.4837 11.705C81.2892 11.162 80.9737 10.6689 80.5602 10.2617C80.1476 9.86679 79.645 9.57481 79.0944 9.41019C78.49 9.21057 77.8557 9.11298 77.2182 9.12153C76.3854 9.09823 75.5568 9.24568 74.785 9.55452C74.1784 9.82402 73.6678 10.2664 73.3192 10.8246C72.9661 11.4606 72.794 12.1786 72.8208 12.903C72.7553 13.5901 72.9201 14.2795 73.2899 14.8659C73.6596 15.3448 74.1721 15.698 74.7557 15.8762C75.4066 16.1059 76.0794 16.2704 76.7638 16.3669H76.8371H76.9983H77.1156C77.6707 16.4359 78.2195 16.5469 78.7573 16.6988C79.1307 16.8122 79.472 17.0099 79.754 17.2762C79.8931 17.4282 79.9998 17.6062 80.0678 17.7996C80.1358 17.9929 80.1637 18.1978 80.1498 18.4019C80.185 18.7427 80.1322 19.0868 79.9964 19.4021C79.8606 19.7175 79.6462 19.994 79.3729 20.2061C78.6981 20.6467 77.894 20.8547 77.0863 20.7978C76.4256 20.7799 75.7843 20.5744 75.2394 20.2061C74.6706 19.8436 74.2022 19.3476 73.8762 18.7628L72.4104 19.4122C72.6129 20.004 72.9429 20.5455 73.3778 20.9999C73.8202 21.4412 74.3628 21.7727 74.9609 21.9669C75.6459 22.191 76.3646 22.2983 77.0863 22.2844C77.9714 22.3063 78.8524 22.1593 79.6808 21.8514C80.3451 21.606 80.9107 21.1554 81.2931 20.5669C81.6791 19.9312 81.8724 19.2 81.8501 18.4597C81.8961 17.7194 81.6953 16.9846 81.2785 16.3669C80.9302 15.8945 80.4447 15.5372 79.886 15.3421Z" fill="#FEFEFE"/>
<path d="M65.6095 14.4331C65.0438 14.3915 64.4754 14.4606 63.937 14.6365C63.3986 14.8124 62.9009 15.0915 62.4727 15.4578C62.0969 15.8636 61.8084 16.34 61.6245 16.8584C61.4406 17.3768 61.3652 17.9265 61.4027 18.4743C61.3671 18.9902 61.4427 19.5077 61.6246 19.9927C61.8065 20.4778 62.0905 20.9195 62.4581 21.2888C63.3169 21.9719 64.4052 22.3119 65.5069 22.2413C66.0813 22.25 66.654 22.177 67.2072 22.0248C67.652 21.8847 68.0616 21.6535 68.4092 21.3465C68.5664 21.1899 68.7041 21.0155 68.8196 20.8269V22.0681H70.5493V13.2929C70.5712 12.5057 70.3896 11.726 70.0216 11.0269C69.6891 10.4134 69.1789 9.91098 68.5558 9.58361C67.7959 9.23042 66.9626 9.05741 66.1225 9.07846C65.1586 9.04284 64.2068 9.2998 63.3962 9.81454C62.6717 10.2876 62.1498 11.007 61.9304 11.8352L63.3962 12.2826C63.6283 11.7811 64.0123 11.3627 64.4955 11.0846C64.9894 10.7885 65.5592 10.6382 66.1372 10.6517C66.5078 10.6275 66.8794 10.6777 67.2297 10.7993C67.5799 10.9208 67.9014 11.1112 68.1747 11.3589C68.4222 11.6276 68.6132 11.942 68.7365 12.2839C68.8598 12.6258 68.9129 12.9884 68.8929 13.3506V14.4331H65.6095ZM68.0574 20.2785C67.3777 20.6335 66.6122 20.7983 65.844 20.7547C65.1214 20.8063 64.4039 20.6015 63.8212 20.1774C63.58 19.965 63.3913 19.7012 63.2693 19.406C63.1474 19.1109 63.0955 18.7922 63.1177 18.4743C63.0672 17.7758 63.299 17.0858 63.7626 16.5547C64.0065 16.3184 64.2986 16.1358 64.6195 16.0189C64.9404 15.9019 65.2828 15.8534 65.6242 15.8764H68.8929V18.8352C68.911 19.1354 68.842 19.4346 68.6941 19.6978C68.5462 19.961 68.3254 20.1773 68.0574 20.3218V20.2785Z" fill="#FEFEFE"/>
<path d="M0.146729 29.5876C4.88126 33.3835 10.1581 39.5031 14.8047 49.433C16.8861 53.7629 20.6679 63.2165 23.2917 70.0722C25.8129 63.6639 29.7998 53.6186 31.764 49.4474C36.4692 39.5175 41.7461 33.3835 46.422 29.5876L23.3357 38.1464L0.146729 29.5876Z" fill="#FEFEFE"/>
<path d="M38.5212 22.1833L37.6124 22.5297L36.557 22.9194L35.0619 23.4679L32.5114 24.406L23.3355 27.7978L14.1596 24.406L11.6091 23.4679L10.114 22.9194L9.05863 22.5297L8.14984 22.1833L6.47883 21.5771L0 23.9586L0.14658 24.0163L1.68567 24.5792L2.71173 24.9545L3.63518 25.3009L5.26221 25.907L23.3355 32.5751L41.4088 25.907L43.0358 25.3009L43.9593 24.9545L45 24.5792L46.5098 24.0163L46.671 23.9586L40.1922 21.5771L38.5212 22.1833Z" fill="#FEFEFE"/>
<path d="M33.728 16.2946L31.7638 17.0162L30.0928 17.6368L29.8143 17.7379L28.1287 18.3585L26.1792 19.0801L23.3355 20.1193L20.4919 19.0801L18.5423 18.3585L16.8567 17.7379L16.5782 17.6368L14.9072 17.0162L12.943 16.2946L6.47883 13.8987L0 16.2946L6.47883 18.676L8.42834 19.3976L10.114 20.0183L10.3925 20.1193L12.0635 20.7399L14.0277 21.4616L14.4381 21.6203L16.9886 22.5585L19.5537 23.5111L23.3355 24.9111L27.1173 23.5111L29.6824 22.5585L32.2329 21.6203L32.6433 21.4616L34.6075 20.7399L36.2785 20.1193L36.557 20.0183L38.2427 19.3976L40.1922 18.676L46.671 16.2946L40.1922 13.8987L33.728 16.2946Z" fill="#FEFEFE"/>
<path d="M0 8.61649L6.47883 11.0124L8.42834 11.734L10.3925 12.4557L16.8567 14.8515L18.8208 15.5732L20.4919 16.1794L20.7704 16.2948L22.456 16.9155L23.3355 17.233L24.215 16.9155L25.9007 16.2948L26.1792 16.1794L27.8502 15.5732L29.8143 14.8515L36.2785 12.4557L38.2427 11.734L40.1922 11.0124L46.671 8.61649L23.3355 0L0 8.61649Z" fill="#FEFEFE"/>
<g opacity="0.5">
<path opacity="0.5" d="M138.708 44.9588C137.894 44.3007 136.909 43.8806 135.865 43.7464C136.825 43.5781 137.726 43.1699 138.48 42.5609C139.235 41.9519 139.818 41.1625 140.174 40.2681C140.539 39.3485 140.723 38.3689 140.716 37.3815V35.332C140.757 33.9468 140.434 32.5748 139.778 31.3485C139.145 30.227 138.171 29.3286 136.993 28.7794C135.581 28.1343 134.035 27.8229 132.479 27.8702H121.661V60.6186H132.948C134.466 60.6606 135.973 60.3491 137.345 59.7093C138.533 59.1313 139.518 58.2165 140.174 57.0825C140.853 55.8425 141.191 54.4496 141.156 53.0413V50.5877C141.177 49.4692 140.962 48.3587 140.526 47.3258C140.122 46.4046 139.498 45.5927 138.708 44.9588ZM132.127 31.4351C133.377 31.3506 134.617 31.7146 135.616 32.4598C136.03 32.8521 136.352 33.3298 136.557 33.8588C136.762 34.3878 136.846 34.955 136.803 35.5196V37.5258C136.849 38.1175 136.774 38.7122 136.582 39.2749C136.391 39.8376 136.087 40.3569 135.689 40.8021C135.253 41.1977 134.739 41.5006 134.179 41.6918C133.62 41.883 133.026 41.9585 132.435 41.9135H125.56V31.4351H132.127ZM137.243 52.9258C137.279 53.501 137.181 54.0768 136.958 54.6095C136.734 55.1421 136.391 55.6177 135.953 56.0001C134.8 56.8249 133.385 57.2142 131.966 57.097H125.56V45.464H132.435C133.354 45.4335 134.267 45.6321 135.088 46.0413C135.798 46.4088 136.365 46.9975 136.7 47.7155C137.077 48.5456 137.262 49.4477 137.243 50.3568V52.9258Z" fill="white"/>
<path opacity="0.5" d="M158.951 38.002C157.615 37.2446 156.095 36.8603 154.554 36.8907C152.939 36.8412 151.341 37.2307 149.936 38.0164C148.639 38.7842 147.615 39.9287 147.005 41.2927C146.289 42.9219 145.944 44.6854 145.993 46.4597V51.8721C145.947 53.57 146.303 55.2552 147.034 56.7938C147.695 58.1114 148.748 59.1991 150.054 59.9113L152.018 60.9938H154.847C156.639 61.0676 158.411 60.5937 159.918 59.6371C161.271 58.6689 162.207 57.2377 162.542 55.6247L158.936 54.4989C158.71 55.355 158.193 56.109 157.471 56.635C156.703 57.1502 155.79 57.4129 154.861 57.3855C154.165 57.4229 153.469 57.3135 152.82 57.0646C152.17 56.8156 151.582 56.433 151.094 55.9422C150.139 54.8302 149.656 53.3982 149.746 51.9443V50.5154H162.703V46.4597C162.751 44.6851 162.422 42.9201 161.736 41.2783C161.171 39.9306 160.199 38.7867 158.951 38.002ZM158.951 47.2247H149.599V46.1855C149.498 44.6421 149.943 43.1118 150.86 41.8556C151.31 41.3567 151.87 40.9668 152.498 40.7164C153.126 40.4661 153.805 40.362 154.48 40.4123C155.113 40.3805 155.744 40.4945 156.325 40.745C156.905 40.9955 157.418 41.3758 157.822 41.8556C158.686 43.0307 159.11 44.4634 159.024 45.9113L158.951 47.2247Z" fill="white"/>
<path opacity="0.5" d="M179.106 36.862C177.59 36.8556 176.103 37.2655 174.811 38.0455C173.741 38.6869 172.83 39.5546 172.143 40.5857V37.2517H168.229V60.6187H172.143V45.8682C172.115 45.1375 172.246 44.4093 172.526 43.7323C172.807 43.0553 173.231 42.4451 173.77 41.9424C174.995 40.9262 176.568 40.4098 178.168 40.4991C178.619 40.4954 179.069 40.5586 179.501 40.6867C179.859 40.8056 180.185 41.003 180.454 41.2641L181.744 37.7568C181.416 37.4502 181.027 37.2142 180.601 37.0641C180.119 36.9097 179.612 36.8413 179.106 36.862Z" fill="white"/>
<path opacity="0.5" d="M189.997 56.4186C189.58 55.8663 189.377 55.1855 189.425 54.499V27.8701H185.511V54.4557C185.408 56.1068 185.93 57.7371 186.977 59.0309C187.503 59.5737 188.142 59.997 188.851 60.2712C189.56 60.5454 190.321 60.664 191.081 60.6186H193.368V57.0969H191.565C191.268 57.1122 190.972 57.0589 190.699 56.9411C190.427 56.8233 190.186 56.6443 189.997 56.4186Z" fill="white"/>
<path opacity="0.5" d="M201.869 28.2742H197.956V32.1133H201.869V28.2742Z" fill="white"/>
<path opacity="0.5" d="M201.869 37.2517H197.956V60.662H201.869V37.2517Z" fill="white"/>
<path opacity="0.5" d="M223.197 38.969C222.573 38.2532 221.789 37.6892 220.906 37.3212C220.024 36.9531 219.067 36.791 218.111 36.8474C216.736 36.8208 215.383 37.1976 214.226 37.9298C213.333 38.5348 212.599 39.3414 212.086 40.2824V37.2515H208.143V60.6185H212.072V45.1608C211.981 43.9017 212.385 42.6565 213.2 41.6824C214.123 40.8857 215.308 40.4464 216.535 40.4464C217.762 40.4464 218.947 40.8857 219.87 41.6824C220.723 42.706 221.142 44.0136 221.042 45.334V60.6185H224.956V45.0597C225.117 42.8888 224.494 40.7318 223.197 38.969Z" fill="white"/>
</g>
</g>
<defs>
<clipPath id="clip0_372_2532">
<rect width="225" height="70" fill="white"/>
</clipPath>
</defs>
</svg>
